ModelForces
version=1
nRows=4
nColumns=155
inDegrees=no

This file contains the forces exerted on a model during a simulation.

A force is a generalized force, meaning that it can be either a force (N) or a torque (Nm).

Units are S.I. units (second, meters, Newtons, ...)
Angles are in degrees.

endheader
time	glut_med1_r	glut_med2_r	glut_med3_r	glut_min1_r	glut_min2_r	glut_min3_r	semimem_r	semiten_r	bifemlh_r	bifemsh_r	sar_r	add_long_r	add_brev_r	add_mag1_r	add_mag2_r	add_mag3_r	tfl_r	pect_r	grac_r	glut_max1_r	glut_max2_r	glut_max3_r	iliacus_r	psoas_r	quad_fem_r	gem_r	peri_r	rect_fem_r	vas_med_r	vas_int_r	vas_lat_r	med_gas_r	lat_gas_r	soleus_r	tib_post_r	flex_dig_r	flex_hal_r	tib_ant_r	per_brev_r	per_long_r	per_tert_r	ext_dig_r	ext_hal_r	glut_med1_l	glut_med2_l	glut_med3_l	glut_min1_l	glut_min2_l	glut_min3_l	semimem_l	semiten_l	bifemlh_l	bifemsh_l	sar_l	add_long_l	add_brev_l	add_mag1_l	add_mag2_l	add_mag3_l	tfl_l	pect_l	grac_l	glut_max1_l	glut_max2_l	glut_max3_l	iliacus_l	psoas_l	quad_fem_l	gem_l	peri_l	rect_fem_l	vas_med_l	vas_int_l	vas_lat_l	med_gas_l	lat_gas_l	soleus_l	tib_post_l	flex_dig_l	flex_hal_l	tib_ant_l	per_brev_l	per_long_l	per_tert_l	ext_dig_l	ext_hal_l	ercspn_r	ercspn_l	intobl_r	intobl_l	extobl_r	extobl_l	femur_lat_meniscii_r.femur_lat_r.force.X	femur_lat_meniscii_r.femur_lat_r.force.Y	femur_lat_meniscii_r.femur_lat_r.force.Z	femur_lat_meniscii_r.femur_lat_r.torque.X	femur_lat_meniscii_r.femur_lat_r.torque.Y	femur_lat_meniscii_r.femur_lat_r.torque.Z	femur_lat_meniscii_r.meniscus_lat_r.force.X	femur_lat_meniscii_r.meniscus_lat_r.force.Y	femur_lat_meniscii_r.meniscus_lat_r.force.Z	femur_lat_meniscii_r.meniscus_lat_r.torque.X	femur_lat_meniscii_r.meniscus_lat_r.torque.Y	femur_lat_meniscii_r.meniscus_lat_r.torque.Z	femur_med_meniscii_r.femur_med_r.force.X	femur_med_meniscii_r.femur_med_r.force.Y	femur_med_meniscii_r.femur_med_r.force.Z	femur_med_meniscii_r.femur_med_r.torque.X	femur_med_meniscii_r.femur_med_r.torque.Y	femur_med_meniscii_r.femur_med_r.torque.Z	femur_med_meniscii_r.meniscus_med_r.force.X	femur_med_meniscii_r.meniscus_med_r.force.Y	femur_med_meniscii_r.meniscus_med_r.force.Z	femur_med_meniscii_r.meniscus_med_r.torque.X	femur_med_meniscii_r.meniscus_med_r.torque.Y	femur_med_meniscii_r.meniscus_med_r.torque.Z	femur_med_tibia_r.tibia_upper_r.force.X	femur_med_tibia_r.tibia_upper_r.force.Y	femur_med_tibia_r.tibia_upper_r.force.Z	femur_med_tibia_r.tibia_upper_r.torque.X	femur_med_tibia_r.tibia_upper_r.torque.Y	femur_med_tibia_r.tibia_upper_r.torque.Z	femur_med_tibia_r.femur_med_r.force.X	femur_med_tibia_r.femur_med_r.force.Y	femur_med_tibia_r.femur_med_r.force.Z	femur_med_tibia_r.femur_med_r.torque.X	femur_med_tibia_r.femur_med_r.torque.Y	femur_med_tibia_r.femur_med_r.torque.Z	femur_lat_tibia_r.tibia_upper_r.force.X	femur_lat_tibia_r.tibia_upper_r.force.Y	femur_lat_tibia_r.tibia_upper_r.force.Z	femur_lat_tibia_r.tibia_upper_r.torque.X	femur_lat_tibia_r.tibia_upper_r.torque.Y	femur_lat_tibia_r.tibia_upper_r.torque.Z	femur_lat_tibia_r.femur_lat_r.force.X	femur_lat_tibia_r.femur_lat_r.force.Y	femur_lat_tibia_r.femur_lat_r.force.Z	femur_lat_tibia_r.femur_lat_r.torque.X	femur_lat_tibia_r.femur_lat_r.torque.Y	femur_lat_tibia_r.femur_lat_r.torque.Z	aACL_R	pACL_R	aPCL_R	pPCL_R	aMCL_R	mMCL_R	pMCL_R	aLCL_R	mLCL_R	pLCL_R	aPCL_L	pPCL_L	aMCL_L	aLCL_L
      0.10546230	      5.64045450	     11.54526081	     12.44892303	      5.26511286	      6.03059170	      6.67610452	    118.69135865	    171.52779737	    230.54774564	    367.05895829	    126.31620098	     11.53441586	      8.14852025	      0.00000000	      4.89700909	      8.67595322	      5.05702258	      0.00000000	    101.08399275	      7.46312668	     11.36992841	      8.58270437	     33.49750304	     25.31201674	      7.10761812	      4.63713713	      3.56630545	     39.28952219	      0.00000000	      0.00000000	      0.00000000	     19.05068190	      1.39027672	      0.00000000	      1.10546131	      3.03823078	      0.46230588	     30.93247179	      2.45240843	      4.22175530	     10.33936891	     17.49315424	      5.50626944	      5.64045450	     11.54526081	     12.44892303	      5.26511286	      6.03059170	      6.67610452	      0.00000000	      8.71258101	     14.93128629	     14.51174472	      2.99984307	     11.53441586	      8.14852025	      0.00000000	      4.89700909	      8.67595322	      6.96118708	      0.00000000	      3.11334606	      7.46312668	     11.36992841	      8.58270437	     33.49750304	     25.31201674	      7.10761812	      4.63713713	      3.56630545	     23.89377940	      0.00000000	      0.00000000	      0.00000000	     15.21799676	      8.04471250	     57.89001661	     58.03557251	      8.17880442	      7.59254149	     16.89718637	      9.58408918	     21.91997687	      3.90610451	     11.26623406	      3.80987585	     49.59239898	     49.59239898	     18.85708428	     18.85708428	     35.76118255	     35.76118255	     79.50219312	    323.05094481	     45.75283256	    -26.62299981	      2.08800299	     31.55694107	    -79.50219312	   -323.05094481	    -45.75283256	      9.88686378	     -2.70230089	      1.86195241	    -39.29478297	     79.28032139	      8.44347157	     -1.54835575	      0.95393642	    -16.07121708	     39.29478297	    -79.28032139	     -8.44347157	     -1.49448004	     -0.94176415	      1.79597589	    -86.40632215	   -475.19853263	    100.71919717	    -11.04181509	      2.09014434	      0.42076064	     86.40632215	    475.19853263	   -100.71919717	     50.64407067	     -1.34596542	     37.06482391	    -29.04932719	   -105.51779943	    -26.02505004	      3.60655512	     -0.99989471	      0.02816758	     29.04932719	    105.51779943	     26.02505004	    -13.30837849	      0.68809271	     12.06526170	      6.91508362	    -11.42778360	      0.00000000	     54.25103746	      0.00000000	      0.00000000	    -39.46094066	      0.00000000	      0.00000000	      0.00000000	      0.00000000	      0.00000000	      0.00000001	      0.00000000
      0.10626194	      6.71497463	     11.48276956	     12.38221419	      5.23748004	      6.00011356	      6.64820741	    118.31089210	    171.08272854	    229.02439508	    365.73461780	    126.39383885	     11.47095415	      8.10613626	      0.00000000	      4.88472998	      8.62770503	      5.05693025	      0.00000000	    101.15110237	      7.42299878	     11.30762418	      8.53507005	     33.37981416	     25.17805078	      7.09699114	      4.61790942	      3.74278423	     39.11593218	      0.00000000	      0.00000000	      0.00000000	     20.24751702	      1.30601596	      0.00000000	      0.47194993	      2.70766325	      0.26323697	     30.38590087	      2.65010707	      4.29410013	      0.00000000	     17.42665422	      5.47915695	      6.71497463	     11.48276956	     12.38221419	      5.23748004	      6.00011356	      6.64820741	      0.00000000	      8.66288562	     14.92858394	     14.43393574	      2.98416946	     11.47095415	      8.10613626	      0.00000000	      4.88472998	      8.62770503	      6.93290454	      0.00000000	      3.09681083	      7.42299878	     11.30762418	      8.53507005	     33.37981416	     25.17805078	      7.09699114	      4.61790942	      3.74278423	     23.77730214	      0.00000000	      0.00000000	      0.00000000	     15.54467228	      8.16533309	     57.96136573	     57.95264930	      8.09111828	      7.49906246	     16.87926545	      9.55173314	     21.88732314	      3.88572156	     11.36831393	      3.84640503	     49.33158642	     49.33158642	     18.75132384	     18.75132384	     35.66362105	     35.66362105	     78.23697898	    322.22477168	     45.25025958	    -26.37928016	      2.05915552	     30.99741190	    -78.23697898	   -322.22477168	    -45.25025958	      9.82190736	     -2.66836407	      1.96816506	    -38.62407042	     79.45729380	      9.72157080	     -2.07731694	      0.93402763	    -15.80267100	     38.62407042	    -79.45729380	     -9.72157080	     -1.45643709	     -0.93793728	      1.79492297	    -90.10877885	   -478.81023660	    102.07720428	    -11.16176959	      2.17559978	      0.38826994	     90.10877885	    478.81023660	   -102.07720428	     51.27425054	     -1.41199104	     38.60290723	    -26.42664281	    -96.05844227	    -23.62885932	      3.27391159	     -0.91301374	      0.05014971	     26.42664281	     96.05844227	     23.62885932	    -12.08525278	      0.62794304	     10.96339986	      6.33805039	    -11.86544725	      0.00000000	     56.14575478	      0.00000000	      0.00000000	    -39.38329444	      0.00000000	      0.00000000	      0.00000000	      0.00000000	      0.00000000	      0.00000001	      0.00000000
      0.10706157	      7.61740119	     11.42092013	     12.31605938	      5.21014866	      5.96997145	      6.61999389	    117.88279923	    170.64864166	    227.33289731	    364.16159044	    126.43547371	     11.40819291	      8.06421310	      0.00000000	      4.87136733	      8.57986368	      5.05717696	      0.00000000	    101.13083358	      7.38322891	     11.24599426	      8.48795867	     33.26345048	     25.04558374	      7.08248738	      4.59888077	      3.90859609	     38.96292624	      0.00000000	      0.00000000	      0.00000000	     21.56248193	      1.23558169	      0.00000000	      0.00000000	      2.38205700	      0.08000461	     30.50160948	      2.86659388	      4.38701115	      6.04350663	     17.35860133	      5.45575533	      7.61740119	     11.42092013	     12.31605938	      5.21014866	      5.96997145	      6.61999389	      0.00000000	      8.61373839	     14.92401499	     14.35698182	      2.96866654	     11.40819291	      8.06421310	      0.00000000	      4.87136733	      8.57986368	      6.90481469	      0.00000000	      3.08045668	      7.38322891	     11.24599426	      8.48795867	     33.26345048	     25.04558374	      7.08248738	      4.59888077	      3.90859609	     23.66097537	      0.00000000	      0.00000000	      0.00000000	     15.85698232	      8.28066324	     58.02023619	     57.86837301	      8.00505622	      7.40721642	     16.85900278	      9.51889848	     21.85362846	      3.86555083	     11.46467761	      3.87955051	     49.07362084	     49.07362084	     18.64672764	     18.64672764	     35.56716720	     35.56716720	     75.19510232	    323.34772759	     45.92128688	    -26.68886683	      1.97755394	     29.68568366	    -75.19510232	   -323.34772759	    -45.92128688	      9.86609073	     -2.58901913	      2.16678280	    -37.90648823	     80.82455075	     10.80568924	     -2.49187268	      0.91227436	    -15.50431006	     37.90648823	    -80.82455075	    -10.80568924	     -1.45599309	     -0.93078125	      1.79357734	    -94.78055075	   -482.05399036	    101.92026858	    -11.21086881	      2.26578811	      0.31815850	     94.78055075	    482.05399036	   -101.92026858	     51.25356021	     -1.49872637	     40.54744729	    -24.56670522	    -89.23522572	    -21.86796662	      3.03130972	     -0.85142587	      0.06865622	     24.56670522	     89.23522572	     21.86796662	    -11.18840314	      0.58559206	     10.17988007	      5.61183465	    -12.40294614	      0.00000000	     58.23760627	      0.00000000	      0.00000000	    -39.50707446	      0.00000000	      0.00000000	      0.00000000	      0.00000000	      0.00000000	      0.00000001	      0.00000000
      0.10776414	      8.29847289	     11.36710704	     12.25840267	      5.18638114	      5.94376260	      6.59497707	    117.48396575	    170.29020290	    225.72592757	    362.66215133	    126.46925245	     11.35362211	      8.02775522	      0.00000000	      4.85881710	      8.53816800	      5.05786969	      1.68311129	    101.08072813	      7.34858663	     11.19239746	      8.44699338	     33.16229367	     24.93042032	      7.06702474	      4.58232550	      4.04613632	     38.82340153	      0.00000000	      0.00000000	      0.00000000	     22.81586570	      1.18381417	      0.00000000	      0.00000000	      2.10094384	      0.00000000	     30.19357161	      3.07320328	      4.48559068	      9.11408534	     17.30060658	      5.43520365	      8.29847289	     11.36710704	     12.25840267	      5.18638114	      5.94376260	      6.59497707	      0.00000000	      8.57100462	     14.91848397	     14.29006738	      2.95518488	     11.35362211	      8.02775522	      0.00000000	      4.85881710	      8.53816800	      6.88029650	      1.68311129	      3.06623559	      7.34858663	     11.19239746	      8.44699338	     33.16229367	     24.93042032	      7.06702474	      4.58232550	      4.04613632	     23.55893272	      0.00000000	      0.00000000	      0.00000000	     16.12004430	      8.37779285	     58.06206912	     57.79324812	      7.93083807	      7.32796389	     16.83932450	      9.48967717	     21.82317970	      3.84800281	     11.54416439	      3.90568926	     48.84929400	     48.84929400	     18.55577906	     18.55577906	     35.48332570	     35.48332570	     74.33821690	    323.84624535	     45.53221465	    -26.53481888	      1.94158102	     29.29030012	    -74.33821690	   -323.84624535	    -45.53221465	      9.85188062	     -2.54997311	      2.27428312	    -38.16297141	     81.86481565	     11.87444473	     -2.91040996	      0.91348683	    -15.62104265	     38.16297141	    -81.86481565	    -11.87444473	     -1.44613404	     -0.94415115	      1.83106438	    -98.84957651	   -483.45194421	    102.52240182	    -11.26539303	      2.34867782	      0.24936944	     98.84957651	    483.45194421	   -102.52240182	     51.52654902	     -1.57093730	     42.23693902	    -23.91675603	    -84.46652347	    -20.83692277	      2.87195074	     -0.82702462	      0.05663465	     23.91675603	     84.46652347	     20.83692277	    -10.64832659	      0.57107582	      9.90667862	      5.26141914	    -12.57555771	     26.78914460	     59.51542928	      0.00000000	      0.00000000	    -39.90682349	      0.00000000	      0.00000000	      0.00000000	      0.00000000	      0.00000000	      0.00000001	      0.00000000
